<?xml version="1.0" encoding="utf-8"?>
<!-- Generator: Adobe Illustrator 16.0.3, SVG Export Plug-In . SVG Version: 6.00 Build 0)  -->
<svg version="1.2" baseProfile="tiny" id="Layer_1" xmlns="http://www.w3.org/2000/svg" xmlns:xlink="http://www.w3.org/1999/xlink"
	 x="0px" y="0px" width="891.0708008px" height="579.2597656px" viewBox="0 0 891.0708008 579.2597656" xml:space="preserve">
<path fill="none" stroke="#000000" stroke-miterlimit="10" d="M503.6499023,106.7958984h-28.3457031v8.5039063H446.956543
	v323.1484375h28.3476563v8.5039063h28.3457031v-8.5039063h90.7089844v8.5039063h28.3476563v-8.5039063h90.7089844v8.5039063
	h28.3457031v-8.5039063h90.7089844v8.5039063h28.3457031v-8.5039063h28.3476563l-0.0019531-323.1484375H860.815918v-8.5039063
	h-28.3476563l0.0019531,8.5039063h-90.7089844v-8.5039063h-28.3476563v8.5039063H622.706543v-8.5039063h-28.3476563v8.5039063
	h-90.7089844V106.7958984z M479.2436523,216.4462891l-0.2773438-0.0234375l-0.2753906-0.0429688l-0.2714844-0.0644531
	l-0.2636719-0.0859375l-0.2578125-0.1074219l-0.2480469-0.125l-0.2363281-0.1464844l-0.2265625-0.1640625l-0.2109375-0.1796875
	l-0.1972656-0.1972656l-0.1796875-0.2109375l-0.1640625-0.2265625l-0.1464844-0.2363281l-0.1269531-0.2480469l-0.1054688-0.2578125
	l-0.0859375-0.265625l-0.0644531-0.2695313l-0.0449219-0.2753906l-0.0214844-0.2773438v-0.2792969l0.0214844-0.2773438
	l0.0449219-0.2753906l0.0644531-0.2695313l0.0859375-0.265625l0.1054688-0.2578125l0.1269531-0.2480469l0.1464844-0.2363281
	l0.1640625-0.2265625l0.1796875-0.2109375l0.1972656-0.1972656l0.2109375-0.1796875l0.2265625-0.1640625l0.2363281-0.1464844
	l0.2480469-0.125l0.2578125-0.1074219l0.2636719-0.0859375l0.2714844-0.0644531l0.2753906-0.0449219l0.2773438-0.0214844h0.2792969
	l0.2773438,0.0214844l0.2753906,0.0449219l0.2695313,0.0644531l0.265625,0.0859375l0.2558594,0.1074219l0.2480469,0.125
	l0.2382813,0.1464844l0.2246094,0.1640625l0.2128906,0.1796875l0.1972656,0.1972656l0.1796875,0.2109375l0.1640625,0.2265625
	l0.1445313,0.2363281l0.1269531,0.2480469l0.1074219,0.2578125l0.0859375,0.265625l0.0644531,0.2695313l0.0429688,0.2753906
	l0.0234375,0.2773438v0.2792969l-0.0234375,0.2773438l-0.0429688,0.2753906l-0.0644531,0.2695313l-0.0859375,0.265625
	l-0.1074219,0.2578125l-0.1269531,0.2480469l-0.1445313,0.2363281l-0.1640625,0.2265625l-0.1796875,0.2109375l-0.1972656,0.1972656
	l-0.2128906,0.1796875l-0.2246094,0.1640625l-0.2382813,0.1464844l-0.2480469,0.125l-0.2558594,0.1074219l-0.265625,0.0859375
	l-0.2695313,0.0644531l-0.2753906,0.0429688l-0.2773438,0.0234375H479.2436523z M480.706543,429.5068359l-0.2714844,0.0664063
	l-0.2753906,0.0429688l-0.2773438,0.0214844h-0.2792969l-0.2773438-0.0214844l-0.2734375-0.0429688l-0.2714844-0.0664063
	l-0.265625-0.0859375l-0.2558594-0.1054688l-0.2480469-0.1269531l-0.2382813-0.1464844l-0.2246094-0.1621094l-0.2128906-0.1816406
	l-0.1972656-0.1972656l-0.1796875-0.2109375l-0.1640625-0.2246094l-0.1445313-0.2382813l-0.1269531-0.2480469l-0.1074219-0.2578125
	l-0.0859375-0.2636719l-0.0644531-0.2714844l-0.0429688-0.2753906l-0.0214844-0.2773438v-0.2773438l0.0214844-0.2773438
	l0.0429688-0.2753906l0.0644531-0.2714844l0.0859375-0.265625l0.1074219-0.2558594l0.1269531-0.2480469l0.1445313-0.2382813
	l0.1640625-0.2246094l0.1796875-0.2128906l0.1972656-0.1953125l0.2128906-0.1816406l0.2246094-0.1640625l0.2382813-0.1445313
	l0.2480469-0.1269531l0.2558594-0.1054688l0.265625-0.0878906l0.2714844-0.0644531l0.2734375-0.0429688l0.2773438-0.0214844
	h0.2792969l0.2773438,0.0214844l0.2753906,0.0429688l0.2714844,0.0644531l0.2636719,0.0878906l0.2578125,0.1054688
	l0.2480469,0.1269531l0.2363281,0.1445313l0.2265625,0.1640625l0.2109375,0.1816406l0.1972656,0.1953125l0.1796875,0.2128906
	l0.1640625,0.2246094l0.1464844,0.2382813l0.1269531,0.2480469l0.1054688,0.2558594l0.0859375,0.265625l0.0644531,0.2714844
	l0.0449219,0.2753906l0.0214844,0.2773438v0.2773438l-0.0214844,0.2773438l-0.0449219,0.2753906l-0.0644531,0.2714844
	l-0.0859375,0.2636719l-0.1054688,0.2578125l-0.1269531,0.2480469l-0.1464844,0.2382813l-0.1640625,0.2246094l-0.1796875,0.2109375
	l-0.1972656,0.1972656l-0.2109375,0.1816406l-0.2265625,0.1621094l-0.2363281,0.1464844l-0.2480469,0.1269531l-0.2578125,0.1054688
	L480.706543,429.5068359z M861.3393555,422.2626953l0.2773438,0.0214844l0.2753906,0.0439453l0.2695313,0.0654297
	l0.265625,0.0859375l0.2578125,0.1064453l0.2480469,0.1259766l0.2363281,0.1455078l0.2265625,0.1640625l0.2109375,0.1806641
	l0.1972656,0.1962891l0.1796875,0.2119141l0.1640625,0.2255859l0.1464844,0.2373047l0.125,0.2480469l0.1074219,0.2578125
	l0.0859375,0.2646484l0.0644531,0.2705078l0.0449219,0.2753906l0.0214844,0.2773438v0.2783203l-0.0214844,0.2773438
	l-0.0449219,0.2753906l-0.0644531,0.2705078l-0.0859375,0.2646484l-0.1074219,0.2578125l-0.125,0.2480469l-0.1464844,0.2373047
	l-0.1640625,0.2255859l-0.1796875,0.2109375l-0.1972656,0.1972656l-0.2109375,0.1806641l-0.2265625,0.1630859l-0.2363281,0.1464844
	l-0.2480469,0.1259766l-0.2578125,0.1064453l-0.265625,0.0859375l-0.2695313,0.0654297l-0.2753906,0.0429688l-0.2773438,0.0224609
	h-0.2792969l-0.2773438-0.0224609l-0.2753906-0.0429688l-0.2695313-0.0654297l-0.265625-0.0859375l-0.2578125-0.1064453
	l-0.2480469-0.1259766l-0.2363281-0.1464844l-0.2265625-0.1630859l-0.2109375-0.1806641l-0.1972656-0.1972656l-0.1796875-0.2109375
	l-0.1640625-0.2255859l-0.1464844-0.2373047l-0.125-0.2480469l-0.1074219-0.2578125l-0.0859375-0.2646484l-0.0644531-0.2705078
	l-0.0429688-0.2753906l-0.0234375-0.2773438v-0.2783203l0.0234375-0.2773438l0.0429688-0.2753906l0.0644531-0.2705078
	l0.0859375-0.2646484l0.1074219-0.2578125l0.125-0.2480469l0.1464844-0.2373047l0.1640625-0.2255859l0.1796875-0.2119141
	l0.1972656-0.1962891l0.2109375-0.1806641l0.2265625-0.1640625l0.2363281-0.1455078l0.2480469-0.1259766l0.2578125-0.1064453
	l0.265625-0.0859375l0.2695313-0.0654297l0.2753906-0.0439453l0.2773438-0.0214844H861.3393555z M653.0424805,416.1435547
	l0.2773438,0.0214844l0.2753906,0.0429688l0.2714844,0.0664063l0.265625,0.0859375l0.2558594,0.1054688l0.2480469,0.1269531
	l0.2382813,0.1445313l0.2246094,0.1640625l0.2128906,0.1816406l0.1953125,0.1972656l0.1816406,0.2109375l0.1640625,0.2246094
	l0.1445313,0.2382813l0.1269531,0.2480469l0.1054688,0.2578125l0.0878906,0.2636719l0.0644531,0.2714844l0.0429688,0.2753906
	l0.0214844,0.2763672v0.2783203l-0.0214844,0.2773438l-0.0429688,0.2753906l-0.0644531,0.2705078l-0.0878906,0.2646484
	l-0.1054688,0.2578125l-0.1269531,0.2480469l-0.1445313,0.2373047l-0.1640625,0.2255859l-0.1816406,0.2109375l-0.1953125,0.1972656
	l-0.2128906,0.1806641l-0.2246094,0.1640625l-0.2382813,0.1455078l-0.2480469,0.1259766l-0.2558594,0.1064453l-0.265625,0.0859375
	l-0.2714844,0.0654297l-0.2753906,0.0439453l-0.2773438,0.0214844h-0.2773438l-0.2773438-0.0214844l-0.2753906-0.0439453
	l-0.2714844-0.0654297l-0.2636719-0.0859375l-0.2578125-0.1064453l-0.2480469-0.1259766l-0.2382813-0.1455078l-0.2246094-0.1640625
	l-0.2109375-0.1806641l-0.1972656-0.1972656l-0.1816406-0.2109375l-0.1621094-0.2255859l-0.1464844-0.2373047l-0.1269531-0.2480469
	l-0.1054688-0.2578125l-0.0859375-0.2646484l-0.0664063-0.2705078l-0.0429688-0.2753906l-0.0214844-0.2773438v-0.2783203
	l0.0214844-0.2763672l0.0429688-0.2753906l0.0664063-0.2714844l0.0859375-0.2636719l0.1054688-0.2578125l0.1269531-0.2480469
	l0.1464844-0.2382813l0.1621094-0.2246094l0.1816406-0.2109375l0.1972656-0.1972656l0.2109375-0.1816406l0.2246094-0.1640625
	l0.2382813-0.1445313l0.2480469-0.1269531l0.2578125-0.1054688l0.2636719-0.0859375l0.2714844-0.0664063l0.2753906-0.0429688
	l0.2773438-0.0214844H653.0424805z M880.659668,381.7548828v28.3466797h-8.5039063v-28.3466797H880.659668z
	 M463.9643555,381.7548828v28.3476563h-8.5039063v-28.3476563H463.9643555z M880.659668,262.7001953v28.3476563h-8.5039063
	v-28.3476563H880.659668z M463.9643555,262.7001953v28.3476563h-8.5039063v-28.3476563H463.9643555z M858.9643555,209.7197266
	l0.2773438,0.0214844l0.2753906,0.0429688l0.2695313,0.0664063l0.265625,0.0859375l0.2558594,0.1054688l0.2480469,0.1269531
	l0.2382813,0.1464844l0.2246094,0.1621094l0.2128906,0.1816406l0.1953125,0.1972656l0.1816406,0.2109375l0.1640625,0.2246094
	l0.1445313,0.2382813l0.1269531,0.2480469l0.1074219,0.2578125l0.0859375,0.2636719l0.0644531,0.2714844l0.0429688,0.2753906
	l0.0214844,0.2773438v0.2773438l-0.0214844,0.2773438l-0.0429688,0.2753906l-0.0644531,0.2714844l-0.0859375,0.2636719
	l-0.1074219,0.2578125l-0.1269531,0.2480469l-0.1445313,0.2382813l-0.1640625,0.2246094l-0.1816406,0.2128906l-0.1953125,0.1953125
	l-0.2128906,0.1816406l-0.2246094,0.1640625l-0.2382813,0.1445313l-0.2480469,0.1269531l-0.2558594,0.1054688l-0.265625,0.0859375
	l-0.2695313,0.0664063l-0.2753906,0.0429688l-0.2773438,0.0214844h-0.2792969l-0.2773438-0.0214844l-0.2753906-0.0429688
	l-0.2714844-0.0664063l-0.2636719-0.0859375l-0.2578125-0.1054688l-0.2480469-0.1269531l-0.2363281-0.1445313l-0.2265625-0.1640625
	l-0.2109375-0.1816406l-0.1972656-0.1953125l-0.1816406-0.2128906l-0.1621094-0.2246094l-0.1464844-0.2382813l-0.1269531-0.2480469
	l-0.1054688-0.2578125l-0.0859375-0.2636719l-0.0644531-0.2714844l-0.0449219-0.2753906l-0.0214844-0.2773438v-0.2773438
	l0.0214844-0.2773438l0.0449219-0.2753906l0.0644531-0.2714844l0.0859375-0.2636719l0.1054688-0.2578125l0.1269531-0.2480469
	l0.1464844-0.2382813l0.1621094-0.2246094l0.1816406-0.2109375l0.1972656-0.1972656l0.2109375-0.1816406l0.2265625-0.1621094
	l0.2363281-0.1464844l0.2480469-0.1269531l0.2578125-0.1054688l0.2636719-0.0859375l0.2714844-0.0664063l0.2753906-0.0429688
	l0.2773438-0.0214844H858.9643555z M651.4584961,208.9267578l0.2773438,0.0234375l0.2753906,0.0429688l0.2695313,0.0644531
	l0.265625,0.0859375l0.2578125,0.1074219l0.2480469,0.125l0.2363281,0.1464844l0.2265625,0.1640625l0.2109375,0.1796875
	l0.1972656,0.1972656l0.1796875,0.2109375l0.1640625,0.2265625l0.1464844,0.2363281l0.125,0.2480469l0.1074219,0.2578125
	l0.0859375,0.265625l0.0644531,0.2695313l0.0449219,0.2753906l0.0214844,0.2773438v0.2792969l-0.0214844,0.2773438
	l-0.0449219,0.2753906l-0.0644531,0.2695313l-0.0859375,0.265625l-0.1074219,0.2578125l-0.125,0.2480469l-0.1464844,0.2363281
	l-0.1640625,0.2265625l-0.1796875,0.2109375l-0.1972656,0.1972656l-0.2109375,0.1796875l-0.2265625,0.1640625l-0.2363281,0.1464844
	l-0.2480469,0.125l-0.2578125,0.1074219l-0.265625,0.0859375l-0.2695313,0.0644531l-0.2753906,0.0449219l-0.2773438,0.0214844
	h-0.2792969l-0.2773438-0.0214844l-0.2753906-0.0449219l-0.2695313-0.0644531l-0.265625-0.0859375l-0.2558594-0.1074219
	l-0.2480469-0.125l-0.2382813-0.1464844l-0.2246094-0.1640625l-0.2128906-0.1796875l-0.1972656-0.1972656l-0.1796875-0.2109375
	l-0.1640625-0.2265625l-0.1464844-0.2363281l-0.125-0.2480469l-0.1074219-0.2578125l-0.0859375-0.265625l-0.0644531-0.2695313
	l-0.0429688-0.2753906l-0.0234375-0.2773438v-0.2792969l0.0234375-0.2773438l0.0429688-0.2753906l0.0644531-0.2695313
	l0.0859375-0.265625l0.1074219-0.2578125l0.125-0.2480469l0.1464844-0.2363281l0.1640625-0.2265625l0.1796875-0.2109375
	l0.1972656-0.1972656l0.2128906-0.1796875l0.2246094-0.1640625l0.2382813-0.1464844l0.2480469-0.125l0.2558594-0.1074219
	l0.265625-0.0859375l0.2695313-0.0644531l0.2753906-0.0429688l0.2773438-0.0234375H651.4584961z M880.6577148,143.6455078
	l0.0019531,28.3476563h-8.5039063l-0.0019531-28.3476563H880.6577148z M463.9643555,143.6455078v28.3476563h-8.5039063v-28.3476563
	H463.9643555z"/>
<g>
	<path d="M524.4174805,492.2001953c-0.1640625-0.6123047-0.2460938-1.7373047-0.2460938-3.375
		s0.0917969-2.8027344,0.2753906-3.4951172c0.1386719-0.5332031,0.3359375-0.9023438,0.5898438-1.1083984
		c0.2539063-0.2070313,0.5429688-0.3095703,0.8671875-0.3095703s0.6113281,0.1025391,0.8613281,0.3095703
		c0.25,0.2060547,0.4589844,0.6152344,0.6230469,1.2275391c0.1660156,0.6132813,0.2480469,1.7382813,0.2480469,3.3759766
		s-0.0917969,2.7988281-0.2753906,3.484375c-0.140625,0.5332031-0.3378906,0.9033203-0.5898438,1.109375
		c-0.2558594,0.2060547-0.5429688,0.3095703-0.8671875,0.3095703s-0.6113281-0.1015625-0.8613281-0.3046875
		C524.7905273,493.2207031,524.5834961,492.8125,524.4174805,492.2001953z M785.7924805,491.4052734
		c0,0.7109375-0.1875,1.2763672-0.5664063,1.6943359c-0.3769531,0.4199219-0.8417969,0.6289063-1.3945313,0.6289063
		c-0.5136719,0-0.9511719-0.1748047-1.3144531-0.5234375c-0.3613281-0.3496094-0.5839844-0.8535156-0.6660156-1.5136719
		l-2.5898438,0.3134766c0.1328125,1.1748047,0.6152344,2.125,1.4472656,2.8515625
		c0.8320313,0.7275391,1.8789063,1.0908203,3.1425781,1.0908203c1.3320313,0,2.4472656-0.4316406,3.3417969-1.2949219
		s1.3417969-1.9072266,1.3417969-3.1328125c0-0.84375-0.2382813-1.5644531-0.71875-2.1611328
		c-0.4785156-0.5966797-1.1191406-0.9814453-1.9179688-1.1523438c1.3398438-0.7294922,2.0097656-1.7070313,2.0097656-2.9326172
		c0-0.8632813-0.328125-1.6376953-0.9824219-2.3232422c-0.7929688-0.8378906-1.8457031-1.2568359-3.1601563-1.2568359
		c-0.7675781,0-1.4609375,0.1445313-2.0800781,0.4335938c-0.6191406,0.2880859-1.1015625,0.6855469-1.4472656,1.1894531
		c-0.3457031,0.5048828-0.6054688,1.1796875-0.7773438,2.0234375l2.4667969,0.4189453
		c0.0703125-0.609375,0.2675781-1.0722656,0.5898438-1.3896484c0.3242188-0.3173828,0.7148438-0.4765625,1.171875-0.4765625
		c0.4628906,0,0.8339844,0.1396484,1.1132813,0.4189453s0.4199219,0.6542969,0.4199219,1.1240234
		c0,0.5517578-0.1914063,0.9951172-0.5722656,1.328125s-0.9316406,0.4902344-1.65625,0.4707031l-0.2949219,2.1806641
		c0.4765625-0.1328125,0.8847656-0.2001953,1.2285156-0.2001953c0.5195313,0,0.9609375,0.1972656,1.3222656,0.5908203
		C785.612793,490.1992188,785.7924805,490.7324219,785.7924805,491.4052734z M700.7475586,485.7685547
		c0,0.5400391-0.1835938,1.0849609-0.5507813,1.6376953c-0.2734375,0.4003906-1.0136719,1.1621094-2.21875,2.2851563
		c-1.4980469,1.390625-2.5019531,2.5058594-3.0097656,3.3466797s-0.8125,1.7314453-0.9140625,2.6708984h9.3789063v-2.4853516
		h-5.3125c0.1386719-0.2412109,0.3222656-0.4882813,0.546875-0.7421875
		c0.2265625-0.2539063,0.7597656-0.7685547,1.6054688-1.5429688c0.84375-0.7744141,1.4277344-1.3671875,1.7519531-1.7802734
		c0.4882813-0.6220703,0.8457031-1.2167969,1.0703125-1.7851563s0.3378906-1.1660156,0.3378906-1.7949219
		c0-1.1044922-0.3925781-2.0283203-1.1796875-2.7705078c-0.7871094-0.7431641-1.8710938-1.1142578-3.2480469-1.1142578
		c-1.2558594,0-2.3027344,0.3203125-3.140625,0.9619141c-0.8378906,0.640625-1.3378906,1.6982422-1.4960938,3.1708984
		l2.6660156,0.265625c0.0507813-0.7802734,0.2421875-1.3388672,0.5722656-1.6757813
		c0.3300781-0.3359375,0.7734375-0.5039063,1.3320313-0.5039063c0.5644531,0,1.0078125,0.1601563,1.328125,0.4804688
		S700.7475586,485.171875,700.7475586,485.7685547z M611.9506836,485.6259766v10.0830078h2.6757813v-14.015625h-2.1699219
		c-0.3046875,0.8505859-0.8671875,1.5947266-1.6855469,2.2324219c-0.8203125,0.6386719-1.578125,1.0712891-2.2753906,1.2998047
		v2.4287109C609.8217773,487.2158203,610.9741211,486.5400391,611.9506836,485.6259766z M521.3706055,488.796875
		c0,2.6787109,0.4160156,4.5400391,1.2480469,5.5839844s1.9257813,1.5664063,3.2851563,1.5664063
		c1.3515625,0,2.40625-0.4765625,3.1601563-1.4287109c0.9140625-1.1552734,1.3710938-3.0527344,1.3710938-5.6933594
		c0-2.6474609-0.453125-4.5419922-1.3613281-5.6845703c-0.7617188-0.9648438-1.8183594-1.4472656-3.1699219-1.4472656
		s-2.40625,0.4765625-3.1621094,1.4277344C521.8276367,484.2773438,521.3706055,486.1679688,521.3706055,488.796875z"/>
	<path fill="none" stroke="#000000" stroke-miterlimit="10" d="M880.659668,449.7871094l-425.2167969,0.0009766
		c-4.6699219,0.0107422-8.4863281,3.8320313-8.4863281,8.5029297v110.5517578c0,4.6767578,3.828125,8.5039063,8.5039063,8.5039063
		H880.659668c4.6757813,0,8.5039063-3.8271484,8.5039063-8.5039063V458.2910156
		C889.1635742,453.6142578,885.3354492,449.7871094,880.659668,449.7871094z M768.3608398,481.5351563
		c3.9140625,0,7.0859375,3.1728516,7.0859375,7.0869141s-3.171875,7.0869141-7.0859375,7.0869141
		s-7.0878906-3.1728516-7.0878906-7.0869141S764.4467773,481.5351563,768.3608398,481.5351563z M714.581543,481.5351563
		c3.9140625,0,7.0878906,3.1728516,7.0878906,7.0869141s-3.1738281,7.0869141-7.0878906,7.0869141
		c-3.9121094,0-7.0859375-3.1728516-7.0859375-7.0869141S710.6694336,481.5351563,714.581543,481.5351563z M683.4018555,481.5351563
		c3.9140625,0,7.0859375,3.1728516,7.0859375,7.0869141s-3.171875,7.0869141-7.0859375,7.0869141
		s-7.0878906-3.1728516-7.0878906-7.0869141S679.487793,481.5351563,683.4018555,481.5351563z M594.3588867,458.2910156h28.3476563
		v8.5039063h-28.3476563V458.2910156z M596.784668,481.5351563c3.9140625,0,7.0859375,3.1728516,7.0859375,7.0869141
		s-3.171875,7.0869141-7.0859375,7.0869141s-7.0859375-3.1728516-7.0859375-7.0869141
		S592.8706055,481.5351563,596.784668,481.5351563z M510.3842773,481.5351563c3.9140625,0,7.0859375,3.1728516,7.0859375,7.0869141
		s-3.171875,7.0869141-7.0859375,7.0869141s-7.0859375-3.1728516-7.0859375-7.0869141
		S506.4702148,481.5351563,510.3842773,481.5351563z M475.3041992,458.2919922h28.3457031v8.5039063h-28.3457031V458.2919922z
		 M455.440918,478.1357422h8.5039063v14.1728516h-8.5039063V478.1357422z M463.9448242,549.0009766h-8.5039063V534.828125h8.5039063
		V549.0009766z M459.7124023,517.8193359c-2.3476563,0-4.2519531-1.9042969-4.2519531-4.2519531
		c0-2.3466797,1.9042969-4.2519531,4.2519531-4.2519531c2.3496094,0,4.2519531,1.9052734,4.2519531,4.2519531
		C463.9643555,515.9150391,462.0620117,517.8193359,459.7124023,517.8193359z M503.6499023,568.8427734h-28.3457031v-8.5039063
		h28.3457031V568.8427734z M548.6518555,545.8828125c0,0.7792969-0.6367188,1.4169922-1.4179688,1.4169922h-42.5195313
		c-0.7792969,0-1.4160156-0.6376953-1.4160156-1.4169922v-34.0166016c0-0.7792969,0.6367188-1.4169922,1.4160156-1.4169922
		h42.5195313c0.78125,0,1.4179688,0.6376953,1.4179688,1.4169922V545.8828125z M541.565918,495.7089844
		c-3.9140625,0-7.0878906-3.1728516-7.0878906-7.0869141s3.1738281-7.0869141,7.0878906-7.0869141
		s7.0859375,3.1728516,7.0859375,7.0869141S545.4799805,495.7089844,541.565918,495.7089844z M622.7045898,568.8427734h-28.3457031
		v-8.5039063h28.3457031V568.8427734z M635.0522461,545.8828125c0,0.7792969-0.6367188,1.4169922-1.4179688,1.4169922h-42.5195313
		c-0.7792969,0-1.4179688-0.6376953-1.4179688-1.4169922v-34.0166016c0-0.7792969,0.6386719-1.4169922,1.4179688-1.4169922
		h42.5195313c0.78125,0,1.4179688,0.6376953,1.4179688,1.4169922V545.8828125z M627.9663086,495.7089844
		c-3.9140625,0-7.0878906-3.1728516-7.0878906-7.0869141s3.1738281-7.0869141,7.0878906-7.0869141
		s7.0859375,3.1728516,7.0859375,7.0869141S631.8803711,495.7089844,627.9663086,495.7089844z M676.3139648,545.8828125v-34.0166016
		c0-0.7792969,0.6367188-1.4169922,1.4160156-1.4169922h42.5214844c0.7792969,0,1.4179688,0.6376953,1.4179688,1.4169922v34.0166016
		c0,0.7792969-0.6386719,1.4169922-1.4179688,1.4169922h-42.5214844
		C676.9506836,547.2998047,676.3139648,546.6621094,676.3139648,545.8828125z M741.7612305,568.8427734h-28.3457031v-8.5039063
		h28.3457031V568.8427734z M741.7612305,466.7949219h-28.3457031v-8.5039063h28.3457031V466.7949219z M806.628418,545.8828125
		c0,0.7792969-0.6386719,1.4169922-1.4179688,1.4169922h-42.5214844c-0.7792969,0-1.4160156-0.6376953-1.4160156-1.4169922
		v-34.0166016c0-0.7792969,0.6367188-1.4169922,1.4160156-1.4169922h42.5214844
		c0.7792969,0,1.4179688,0.6376953,1.4179688,1.4169922V545.8828125z M799.5405273,495.7089844
		c-3.9121094,0-7.0859375-3.1728516-7.0859375-7.0869141s3.1738281-7.0869141,7.0859375-7.0869141
		c3.9140625,0,7.0878906,3.1728516,7.0878906,7.0869141S803.4545898,495.7089844,799.5405273,495.7089844z M819.0249023,545.8818359
		v-28.3466797c0-0.7792969,0.6367188-1.4169922,1.4160156-1.4169922h25.5117188
		c0.7792969,0,1.4179688,0.6376953,1.4179688,1.4169922v28.3466797c0,0.7792969-0.6386719,1.4169922-1.4179688,1.4169922H820.440918
		C819.6616211,547.2988281,819.0249023,546.6611328,819.0249023,545.8818359z M860.815918,568.8427734h-28.3457031v-8.5039063
		h28.3457031V568.8427734z M860.815918,466.7949219h-28.3457031v-8.5039063h28.3457031V466.7949219z M880.659668,549.0009766
		h-8.5039063V534.828125h8.5039063V549.0009766z M876.4077148,517.8193359c-2.3496094,0-4.2519531-1.9042969-4.2519531-4.2519531
		c0-2.3466797,1.9023438-4.2519531,4.2519531-4.2519531c2.3476563,0,4.2519531,1.9052734,4.2519531,4.2519531
		C880.659668,515.9150391,878.7553711,517.8193359,876.4077148,517.8193359z M880.659668,492.3085938h-8.5039063v-14.1728516
		h8.5039063V492.3085938z"/>
</g>
<path fill="none" stroke="#000000" stroke-miterlimit="10" d="M435.6186523,449.7871094l-425.2163086,0.0009766
	c-4.668457,0.0107422-8.4848633,3.8320313-8.4848633,8.5029297v110.5517578c0,4.6767578,3.8266602,8.5039063,8.5039063,8.5039063
	h425.1972656c4.6777344,0,8.5039063-3.8271484,8.5039063-8.5039063V458.2910156
	C444.1225586,453.6142578,440.2963867,449.7871094,435.6186523,449.7871094z M149.3198242,458.2910156h28.3457031v8.5039063
	h-28.3457031V458.2910156z M10.4013672,478.1337891h8.5039063v14.1738281h-8.5039063V478.1337891z M18.9052734,548.9990234
	h-8.5039063v-14.171875h8.5039063V548.9990234z M14.6733398,517.8193359c-2.3486328,0-4.2519531-1.9042969-4.2519531-4.2519531
	c0-2.3466797,1.9033203-4.2519531,4.2519531-4.2519531s4.2519531,1.9052734,4.2519531,4.2519531
	C18.925293,515.9150391,17.0219727,517.8193359,14.6733398,517.8193359z M58.6108398,568.8427734H30.2641602v-8.5039063h28.3466797
	V568.8427734z M58.6108398,466.7958984H30.2641602v-8.5039063h28.3466797V466.7958984z M80.9350586,550.0507813
	c-4.5605469,0-8.5859375-2.2509766-11.0546875-5.6943359v-15.8242188c2.46875-3.4433594,6.4941406-5.6943359,11.0546875-5.6943359
	c7.5146484,0,13.6064453,6.0917969,13.6064453,13.6064453S88.449707,550.0507813,80.9350586,550.0507813z M80.9350586,504.171875
	c-4.5605469,0-8.5859375-2.2509766-11.0546875-5.6943359v-15.8242188c2.46875-3.4433594,6.4941406-5.6943359,11.0546875-5.6943359
	c7.5146484,0,13.6064453,6.0917969,13.6064453,13.6064453S88.449707,504.171875,80.9350586,504.171875z M177.6655273,568.8427734
	h-28.3476563v-8.5039063h28.3476563V568.8427734z M167.3354492,550.0507813c-4.5605469,0-8.5878906-2.2509766-11.0566406-5.6943359
	v-15.8242188c2.46875-3.4433594,6.4960938-5.6943359,11.0566406-5.6943359c7.5136719,0,13.6054688,6.0917969,13.6054688,13.6064453
	S174.8491211,550.0507813,167.3354492,550.0507813z M167.3354492,504.171875c-4.5605469,0-8.5878906-2.2509766-11.0566406-5.6943359
	v-15.8242188c2.46875-3.4433594,6.4960938-5.6943359,11.0566406-5.6943359c7.5136719,0,13.6054688,6.0917969,13.6054688,13.6064453
	S174.8491211,504.171875,167.3354492,504.171875z M253.9506836,550.0507813c-4.5605469,0-8.5859375-2.2509766-11.0546875-5.6943359
	v-15.8242188c2.46875-3.4433594,6.4941406-5.6943359,11.0546875-5.6943359c7.515625,0,13.6074219,6.0917969,13.6074219,13.6064453
	S261.4663086,550.0507813,253.9506836,550.0507813z M253.9506836,504.171875c-4.5605469,0-8.5859375-2.2509766-11.0546875-5.6943359
	v-15.8242188c2.46875-3.4433594,6.4941406-5.6943359,11.0546875-5.6943359c7.515625,0,13.6074219,6.0917969,13.6074219,13.6064453
	S261.4663086,504.171875,253.9506836,504.171875z M296.7202148,568.8427734h-28.3457031v-8.5039063h28.3457031V568.8427734z
	 M296.7202148,466.7949219h-28.3457031v-8.5039063h28.3457031V466.7949219z M338.909668,550.0507813
	c-4.5605469,0-8.5859375-2.2509766-11.0546875-5.6943359v-15.8242188c2.46875-3.4433594,6.4941406-5.6943359,11.0546875-5.6943359
	c7.515625,0,13.6074219,6.0917969,13.6074219,13.6064453S346.425293,550.0507813,338.909668,550.0507813z M338.909668,504.171875
	c-4.5605469,0-8.5859375-2.2509766-11.0546875-5.6943359v-15.8242188c2.46875-3.4433594,6.4941406-5.6943359,11.0546875-5.6943359
	c7.515625,0,13.6074219,6.0917969,13.6074219,13.6064453S346.425293,504.171875,338.909668,504.171875z M415.7749023,568.8427734
	h-28.3457031v-8.5039063h28.3457031V568.8427734z M415.7749023,466.7949219h-28.3457031v-8.5039063h28.3457031V466.7949219z
	 M435.6186523,548.9990234h-8.5039063v-14.171875h8.5039063V548.9990234z M431.3666992,517.8193359
	c-2.3476563,0-4.2519531-1.9042969-4.2519531-4.2519531c0-2.3466797,1.9042969-4.2519531,4.2519531-4.2519531
	c2.3496094,0,4.2519531,1.9052734,4.2519531,4.2519531C435.6186523,515.9150391,433.7163086,517.8193359,431.3666992,517.8193359z
	 M435.6186523,492.3076172h-8.5039063v-14.1738281h8.5039063V492.3076172z"/>
<polygon fill="none" stroke="#000000" stroke-miterlimit="10" points="772.940918,103.9599609 772.940918,112.4638672 
	801.2866211,112.4638672 801.2866211,103.9599609 829.6342773,103.9599609 829.6342773,103.9599609 829.6342773,92.6220703 
	838.1381836,92.6220703 838.1381836,92.6201172 838.1381836,78.4482422 838.1381836,78.4472656 829.6342773,78.4472656 
	829.6342773,61.4404297 829.6342773,61.4404297 816.0288086,61.4404297 816.0288086,61.4404297 816.0288086,64.7001953 
	809.7924805,64.7001953 809.7924805,61.4404297 809.7924805,61.4404297 808.3745117,61.4404297 808.3745117,52.9365234 
	809.7924805,52.9365234 809.7924805,52.9365234 809.7924805,49.6767578 816.0288086,49.6767578 816.0288086,52.9365234 
	816.0288086,52.9365234 829.6342773,52.9365234 829.6342773,52.9365234 829.6342773,35.9287109 838.1381836,35.9287109 
	838.1381836,35.9277344 838.1381836,21.7568359 838.1381836,21.7548828 829.6342773,21.7548828 829.6342773,10.4169922 
	829.6342773,10.4169922 801.2866211,10.4169922 801.2866211,1.9130859 772.940918,1.9130859 772.940918,10.4169922 
	714.5405273,10.4169922 682.2338867,10.4169922 682.2338867,1.9130859 653.8862305,1.9130859 653.8862305,10.4169922 
	563.1791992,10.4169922 563.1791992,1.9130859 534.831543,1.9130859 534.831543,10.4169922 506.4858398,10.4169922 
	506.4858398,10.4169922 506.4858398,21.7548828 497.9819336,21.7548828 497.9819336,21.7568359 497.9819336,35.9267578 
	497.9819336,35.9296875 506.4858398,35.9296875 506.4858398,52.9365234 506.4858398,52.9365234 520.0913086,52.9365234 
	520.0913086,52.9365234 520.0913086,49.6767578 526.3276367,49.6767578 526.3276367,52.9365234 526.3276367,52.9365234 
	527.7456055,52.9365234 527.7456055,61.4404297 526.3276367,61.4404297 526.3276367,61.4404297 526.3276367,64.7001953 
	520.0913086,64.7001953 520.0913086,61.4404297 520.0913086,61.4404297 506.4858398,61.4404297 506.4858398,61.4404297 
	506.4858398,78.4462891 497.9819336,78.4462891 497.9819336,78.4492188 497.9819336,92.6201172 497.9819336,92.6220703 
	506.4858398,92.6220703 506.4858398,103.9599609 506.4858398,103.9599609 534.831543,103.9599609 534.831543,112.4638672 
	563.1791992,112.4638672 563.1791992,103.9599609 653.8862305,103.9599609 653.8862305,112.4638672 682.2338867,112.4638672 
	682.2338867,103.9599609 714.5405273,103.9599609 "/>
<polygon fill="none" stroke="#000000" stroke-miterlimit="10" points="327.8999023,103.9599609 327.8999023,112.4638672 
	356.2475586,112.4638672 356.2475586,103.9599609 384.5932617,103.9599609 384.5932617,103.9599609 384.5932617,92.6220703 
	393.097168,92.6220703 393.097168,92.6201172 393.097168,78.4482422 393.097168,78.4472656 384.5932617,78.4472656 
	384.5932617,61.4404297 384.5932617,61.4404297 370.987793,61.4404297 370.987793,61.4404297 370.987793,64.7001953 
	364.7514648,64.7001953 364.7514648,61.4404297 364.7514648,61.4404297 363.3334961,61.4404297 363.3334961,52.9365234 
	364.7514648,52.9365234 364.7514648,52.9365234 364.7514648,49.6767578 370.987793,49.6767578 370.987793,52.9365234 
	370.987793,52.9365234 384.5932617,52.9365234 384.5932617,52.9365234 384.5932617,35.9287109 393.097168,35.9287109 
	393.097168,35.9277344 393.097168,21.7568359 393.097168,21.7548828 384.5932617,21.7548828 384.5932617,10.4169922 
	384.5932617,10.4169922 356.2475586,10.4169922 356.2475586,1.9130859 327.8999023,1.9130859 327.8999023,10.4169922 
	269.4995117,10.4169922 237.1928711,10.4169922 237.1928711,1.9130859 208.8452148,1.9130859 208.8452148,10.4169922 
	118.137207,10.4169922 118.137207,1.9130859 89.7895508,1.9130859 89.7895508,10.4169922 61.4448242,10.4169922 
	61.4448242,10.4169922 61.4448242,21.7548828 52.940918,21.7548828 52.940918,21.7568359 52.940918,35.9267578 
	52.940918,35.9296875 61.4448242,35.9296875 61.4448242,52.9365234 61.4448242,52.9365234 75.050293,52.9365234 
	75.050293,52.9365234 75.050293,49.6767578 81.2866211,49.6767578 81.2866211,52.9365234 81.2866211,52.9365234 
	82.7045898,52.9365234 82.7045898,61.4404297 81.2866211,61.4404297 81.2866211,61.4404297 81.2866211,64.7001953 
	75.050293,64.7001953 75.050293,61.4404297 75.050293,61.4404297 61.4448242,61.4404297 61.4448242,61.4404297 
	61.4448242,78.4462891 52.940918,78.4462891 52.940918,78.4492188 52.940918,92.6201172 52.940918,92.6220703 
	61.4448242,92.6220703 61.4448242,103.9599609 61.4448242,103.9599609 89.7895508,103.9599609 89.7895508,112.4638672 
	118.137207,112.4638672 118.137207,103.9599609 208.8452148,103.9599609 208.8452148,112.4638672 237.1928711,112.4638672 
	237.1928711,103.9599609 269.4995117,103.9599609 "/>
<path fill="none" stroke="#000000" stroke-miterlimit="10" d="M444.1206055,115.2998047h-28.3457031v-8.5039063h-28.3476563
	l0.0019531,8.5039063h-90.7089844v-8.5039063h-28.3476563v8.5039063h-90.7070313v-8.5039063h-28.3476563v8.5039063H58.6108398
	v-8.5039063H30.2641602v8.5039063H1.9174805v323.1484375h28.3466797v8.5039063h28.3466797v-8.5039063h90.7070313v8.5039063
	h28.3476563v-8.5039063h90.7089844v8.5039063h28.3457031v-8.5039063h90.7089844v8.5039063h28.3457031v-8.5039063h28.3476563
	L444.1206055,115.2998047z M18.925293,410.1025391h-8.5039063v-28.3476563h8.5039063V410.1025391z M18.925293,291.0478516
	h-8.5039063v-28.3476563h8.5039063V291.0478516z M18.925293,171.9931641h-8.5039063v-28.3476563h8.5039063V171.9931641z
	 M80.9350586,286.5107422c-5.3227539,0-9.6376953-4.3144531-9.6376953-9.6367188s4.3149414-9.6386719,9.6376953-9.6386719
	s9.6376953,4.3164063,9.6376953,9.6386719S86.2578125,286.5107422,80.9350586,286.5107422z M167.3354492,286.5107422
	c-5.3242188,0-9.6386719-4.3144531-9.6386719-9.6367188s4.3144531-9.6386719,9.6386719-9.6386719
	c5.3222656,0,9.6367188,4.3164063,9.6367188,9.6386719S172.6577148,286.5107422,167.3354492,286.5107422z M253.9506836,286.5107422
	c-5.3222656,0-9.6367188-4.3144531-9.6367188-9.6367188s4.3144531-9.6386719,9.6367188-9.6386719
	s9.6386719,4.3164063,9.6386719,9.6386719S259.2729492,286.5107422,253.9506836,286.5107422z M338.909668,286.5107422
	c-5.3222656,0-9.6367188-4.3144531-9.6367188-9.6367188s4.3144531-9.6386719,9.6367188-9.6386719
	s9.6386719,4.3164063,9.6386719,9.6386719S344.2319336,286.5107422,338.909668,286.5107422z M435.6186523,410.1005859h-8.5039063
	v-28.3457031h8.5039063V410.1005859z M435.6186523,291.0478516h-8.5039063v-28.3476563h8.5039063V291.0478516z
	 M427.1147461,171.9931641l-0.0019531-28.3476563h8.5039063l0.0019531,28.3476563H427.1147461z"/>
<path fill="none" stroke="#000000" stroke-miterlimit="10" d="M473.5141602,60.6884766v-7h-4.1972656l-1.9472656-3.8125
	l0.4404297-0.0683594l0.5410156-0.1308594l0.5292969-0.171875l0.515625-0.2128906l0.4960938-0.2519531l0.4746094-0.2910156
	l0.4511719-0.328125l0.421875-0.3613281l0.3945313-0.3945313l0.3613281-0.421875l0.3261719-0.4511719l0.2929688-0.4746094
	l0.2519531-0.4960938l0.2128906-0.515625l0.171875-0.5292969l0.1308594-0.5410156l0.0859375-0.5507813l0.0449219-0.5546875
	v-0.5566406l-0.0449219-0.5546875l-0.0859375-0.5507813l-0.1308594-0.5410156l-0.171875-0.5292969l-0.2128906-0.515625
	l-0.2519531-0.4960938l-0.2929688-0.4746094l-0.3261719-0.4511719l-0.3613281-0.4238281l-0.3945313-0.3925781l-0.421875-0.3613281
	l-0.4511719-0.328125l-0.4746094-0.2910156l-0.4960938-0.2519531l-0.515625-0.2128906l-0.5292969-0.171875l-0.5410156-0.1308594
	l-0.5507813-0.0878906l-0.5546875-0.0429688h-0.5566406l-0.5546875,0.0429688l-0.5507813,0.0878906l-0.5410156,0.1308594
	l-0.5292969,0.171875l-0.515625,0.2128906l-0.4960938,0.2519531l-0.4746094,0.2910156l-0.4511719,0.328125l-0.4238281,0.3613281
	l-0.3925781,0.3925781l-0.3613281,0.4238281l-0.328125,0.4511719l-0.2910156,0.4746094l-0.2519531,0.4960938l-0.2128906,0.515625
	l-0.171875,0.5292969l-0.1308594,0.5410156l-0.0878906,0.5507813l-0.0429688,0.5546875v0.5566406l0.0429688,0.5546875
	l0.0878906,0.5507813l0.1308594,0.5410156l0.171875,0.5292969l0.2128906,0.515625l0.2519531,0.4960938l0.2910156,0.4746094
	l0.328125,0.4511719l0.3613281,0.421875l0.3925781,0.3945313l0.4238281,0.3613281l0.4511719,0.328125l0.4746094,0.2910156
	l0.4960938,0.2519531l0.515625,0.2128906l0.5292969,0.171875l0.5410156,0.1308594l0.4433594,0.0703125l-1.9462891,3.8105469
	h-15.1103516l-1.9472656-3.8125l0.4394531-0.0683594l0.5410156-0.1308594l0.5292969-0.171875l0.515625-0.2128906
	l0.4960938-0.2519531l0.4765625-0.2910156l0.4511719-0.328125l0.4199219-0.3613281l0.3945313-0.3945313l0.3613281-0.421875
	l0.3261719-0.4511719l0.2929688-0.4746094l0.2519531-0.4960938l0.2128906-0.515625l0.171875-0.5292969l0.1308594-0.5410156
	l0.0859375-0.5507813l0.0449219-0.5546875v-0.5566406l-0.0449219-0.5546875l-0.0859375-0.5507813l-0.1308594-0.5410156
	l-0.171875-0.5292969l-0.2128906-0.515625l-0.2519531-0.4960938l-0.2929688-0.4746094l-0.3261719-0.4511719l-0.3613281-0.4238281
	l-0.3945313-0.3925781l-0.4199219-0.3613281l-0.4511719-0.328125l-0.4765625-0.2910156l-0.4960938-0.2519531l-0.515625-0.2128906
	l-0.5292969-0.171875l-0.5410156-0.1308594l-0.5507813-0.0878906l-0.5546875-0.0429688h-0.5546875l-0.5546875,0.0429688
	l-0.5507813,0.0878906l-0.5410156,0.1308594l-0.5292969,0.171875l-0.515625,0.2128906l-0.4960938,0.2519531l-0.4765625,0.2910156
	l-0.4511719,0.328125l-0.421875,0.3613281l-0.3925781,0.3925781l-0.3613281,0.4238281l-0.328125,0.4511719l-0.2910156,0.4746094
	l-0.2519531,0.4960938l-0.2128906,0.515625l-0.171875,0.5292969l-0.1308594,0.5410156l-0.0878906,0.5507813l-0.0429688,0.5546875
	v0.5566406l0.0429688,0.5546875l0.0878906,0.5507813l0.1308594,0.5410156l0.171875,0.5292969l0.2128906,0.515625
	l0.2519531,0.4960938l0.2910156,0.4746094l0.328125,0.4511719l0.3613281,0.421875l0.3925781,0.3945313l0.421875,0.3613281
	l0.4511719,0.328125l0.4765625,0.2910156l0.4960938,0.2519531l0.515625,0.2128906l0.5292969,0.171875l0.5410156,0.1308594
	l0.4433594,0.0703125l-1.9472656,3.8105469h-15.1113281l-1.9472656-3.8125l0.4414063-0.0683594l0.5410156-0.1308594
	l0.5292969-0.171875l0.515625-0.2128906l0.4960938-0.2519531l0.4765625-0.2910156l0.4511719-0.328125l0.4199219-0.3613281
	l0.3945313-0.3945313l0.3613281-0.421875l0.3261719-0.4511719l0.2929688-0.4746094l0.2519531-0.4960938l0.2128906-0.515625
	l0.171875-0.5292969l0.1308594-0.5410156l0.0859375-0.5507813l0.0449219-0.5546875v-0.5566406l-0.0449219-0.5546875
	l-0.0859375-0.5507813l-0.1308594-0.5410156l-0.171875-0.5292969l-0.2128906-0.515625l-0.2519531-0.4960938l-0.2929688-0.4746094
	l-0.3261719-0.4511719l-0.3613281-0.4238281l-0.3945313-0.3925781l-0.4199219-0.3613281l-0.4511719-0.328125l-0.4765625-0.2910156
	l-0.4960938-0.2519531l-0.515625-0.2128906l-0.5292969-0.171875l-0.5410156-0.1308594l-0.5507813-0.0878906l-0.5546875-0.0429688
	h-0.5546875l-0.5546875,0.0429688l-0.5507813,0.0878906l-0.5410156,0.1308594l-0.5292969,0.171875l-0.515625,0.2128906
	l-0.4960938,0.2519531l-0.4765625,0.2910156l-0.4511719,0.328125l-0.421875,0.3613281l-0.3925781,0.3925781l-0.3613281,0.4238281
	l-0.328125,0.4511719l-0.2910156,0.4746094l-0.2519531,0.4960938l-0.2128906,0.515625l-0.171875,0.5292969l-0.1308594,0.5410156
	l-0.0878906,0.5507813l-0.0429688,0.5546875v0.5566406l0.0429688,0.5546875l0.0878906,0.5507813l0.1308594,0.5410156
	l0.171875,0.5292969l0.2128906,0.515625l0.2519531,0.4960938l0.2910156,0.4746094l0.328125,0.4511719l0.3613281,0.421875
	l0.3925781,0.3945313l0.421875,0.3613281l0.4511719,0.328125l0.4765625,0.2910156l0.4960938,0.2519531l0.515625,0.2128906
	l0.5292969,0.171875l0.5410156,0.1308594l0.4414063,0.0683594l-1.9472656,3.8125h-4.1972656v7h4.1982422l1.9462891,3.8105469
	l-0.4414063,0.0703125l-0.5410156,0.1308594l-0.5292969,0.171875l-0.515625,0.2128906l-0.4960938,0.2519531l-0.4765625,0.2910156
	l-0.4511719,0.328125l-0.421875,0.3613281l-0.3925781,0.3925781l-0.3613281,0.4238281l-0.328125,0.4511719l-0.2910156,0.4746094
	l-0.2519531,0.4960938l-0.2128906,0.515625l-0.171875,0.5292969l-0.1308594,0.5410156l-0.0878906,0.5507813l-0.0429688,0.5546875
	v0.5566406l0.0429688,0.5546875l0.0878906,0.5507813l0.1308594,0.5410156l0.171875,0.5292969l0.2128906,0.515625
	l0.2519531,0.4960938l0.2910156,0.4746094l0.328125,0.4511719l0.3613281,0.421875l0.3925781,0.3945313l0.421875,0.3613281
	l0.4511719,0.328125l0.4765625,0.2910156l0.4960938,0.2519531l0.515625,0.2128906l0.5292969,0.171875l0.5410156,0.1308594
	l0.5507813,0.0859375l0.5546875,0.0449219h0.5546875l0.5546875-0.0449219l0.5507813-0.0859375l0.5410156-0.1308594
	l0.5292969-0.171875l0.515625-0.2128906l0.4960938-0.2519531l0.4765625-0.2910156l0.4511719-0.328125l0.4199219-0.3613281
	l0.3945313-0.3945313l0.3613281-0.421875l0.3261719-0.4511719l0.2929688-0.4746094l0.2519531-0.4960938l0.2128906-0.515625
	l0.171875-0.5292969l0.1308594-0.5410156l0.0859375-0.5507813l0.0449219-0.5546875v-0.5566406l-0.0449219-0.5546875
	l-0.0859375-0.5507813l-0.1308594-0.5410156l-0.171875-0.5292969l-0.2128906-0.515625l-0.2519531-0.4960938l-0.2929688-0.4746094
	l-0.3261719-0.4511719l-0.3613281-0.4238281l-0.3945313-0.3925781l-0.4199219-0.3613281l-0.4511719-0.328125l-0.4765625-0.2910156
	l-0.4960938-0.2519531l-0.515625-0.2128906l-0.5292969-0.171875l-0.5410156-0.1308594l-0.4394531-0.0703125l1.9462891-3.8105469
	h15.1103516l1.9462891,3.8105469l-0.4423828,0.0703125l-0.5410156,0.1308594l-0.5292969,0.171875l-0.515625,0.2128906
	l-0.4960938,0.2519531l-0.4746094,0.2910156l-0.4511719,0.328125l-0.4238281,0.3613281l-0.3925781,0.3925781l-0.3613281,0.4238281
	l-0.328125,0.4511719l-0.2910156,0.4746094l-0.2519531,0.4960938l-0.2128906,0.515625l-0.171875,0.5292969l-0.1308594,0.5410156
	l-0.0878906,0.5507813l-0.0429688,0.5546875v0.5566406l0.0429688,0.5546875l0.0878906,0.5507813l0.1308594,0.5410156
	l0.171875,0.5292969l0.2128906,0.515625l0.2519531,0.4960938l0.2910156,0.4746094l0.328125,0.4511719l0.3613281,0.421875
	l0.3925781,0.3945313l0.4238281,0.3613281l0.4511719,0.328125l0.4746094,0.2910156l0.4960938,0.2519531l0.515625,0.2128906
	l0.5292969,0.171875l0.5410156,0.1308594l0.5507813,0.0859375l0.5546875,0.0449219h0.5566406l0.5546875-0.0449219
	l0.5507813-0.0859375l0.5410156-0.1308594l0.5292969-0.171875l0.515625-0.2128906l0.4960938-0.2519531l0.4746094-0.2910156
	l0.4511719-0.328125l0.421875-0.3613281l0.3945313-0.3945313l0.3613281-0.421875l0.3261719-0.4511719l0.2929688-0.4746094
	l0.2519531-0.4960938l0.2128906-0.515625l0.171875-0.5292969l0.1308594-0.5410156l0.0859375-0.5507813l0.0449219-0.5546875
	v-0.5566406l-0.0449219-0.5546875l-0.0859375-0.5507813l-0.1308594-0.5410156l-0.171875-0.5292969l-0.2128906-0.515625
	l-0.2519531-0.4960938l-0.2929688-0.4746094l-0.3261719-0.4511719l-0.3613281-0.4238281l-0.3945313-0.3925781l-0.421875-0.3613281
	l-0.4511719-0.328125l-0.4746094-0.2910156l-0.4960938-0.2519531l-0.515625-0.2128906l-0.5292969-0.171875l-0.5410156-0.1308594
	l-0.4404297-0.0703125l1.9462891-3.8105469h15.1113281l1.9462891,3.8105469l-0.4423828,0.0703125l-0.5410156,0.1308594
	l-0.5292969,0.171875l-0.515625,0.2128906l-0.4960938,0.2519531l-0.4765625,0.2910156l-0.4511719,0.328125l-0.421875,0.3613281
	l-0.3925781,0.3925781l-0.3613281,0.4238281l-0.328125,0.4511719l-0.2910156,0.4746094l-0.2519531,0.4960938l-0.2128906,0.515625
	l-0.171875,0.5292969l-0.1308594,0.5410156l-0.0878906,0.5507813l-0.0429688,0.5546875v0.5566406l0.0429688,0.5546875
	l0.0878906,0.5507813l0.1308594,0.5410156l0.171875,0.5292969l0.2128906,0.515625l0.2519531,0.4960938l0.2910156,0.4746094
	l0.328125,0.4511719l0.3613281,0.421875l0.3925781,0.3945313l0.421875,0.3613281l0.4511719,0.328125l0.4765625,0.2910156
	l0.4960938,0.2519531l0.515625,0.2128906l0.5292969,0.171875l0.5410156,0.1308594l0.5507813,0.0859375l0.5546875,0.0449219
	h0.5546875l0.5546875-0.0449219l0.5507813-0.0859375l0.5410156-0.1308594l0.5292969-0.171875l0.515625-0.2128906
	l0.4960938-0.2519531l0.4765625-0.2910156l0.4511719-0.328125l0.4199219-0.3613281l0.3945313-0.3945313l0.3613281-0.421875
	l0.3261719-0.4511719l0.2929688-0.4746094l0.2519531-0.4960938l0.2128906-0.515625l0.171875-0.5292969l0.1308594-0.5410156
	l0.0859375-0.5507813l0.0449219-0.5546875v-0.5566406l-0.0449219-0.5546875l-0.0859375-0.5507813l-0.1308594-0.5410156
	l-0.171875-0.5292969l-0.2128906-0.515625l-0.2519531-0.4960938l-0.2929688-0.4746094l-0.3261719-0.4511719l-0.3613281-0.4238281
	l-0.3945313-0.3925781l-0.4199219-0.3613281l-0.4511719-0.328125l-0.4765625-0.2910156l-0.4960938-0.2519531l-0.515625-0.2128906
	l-0.5292969-0.171875l-0.5410156-0.1308594l-0.4384766-0.0703125l1.9462891-3.8105469H473.5141602z M465.1987305,46.1787109
	l-0.2578125-0.1074219l-0.2480469-0.125l-0.2363281-0.1464844l-0.2265625-0.1640625l-0.2109375-0.1796875l-0.1972656-0.1972656
	l-0.1796875-0.2109375l-0.1640625-0.2265625l-0.1464844-0.2363281l-0.125-0.2480469l-0.1074219-0.2578125l-0.0859375-0.265625
	l-0.0644531-0.2695313l-0.0449219-0.2753906l-0.0214844-0.2773438v-0.2792969l0.0214844-0.2773438l0.0449219-0.2753906
	l0.0644531-0.2695313l0.0859375-0.265625l0.1074219-0.2578125l0.125-0.2480469l0.1464844-0.2363281l0.1640625-0.2265625
	l0.1796875-0.2109375l0.1972656-0.1972656l0.2109375-0.1796875l0.2265625-0.1640625l0.2363281-0.1464844l0.2480469-0.125
	l0.2578125-0.1074219l0.265625-0.0859375l0.2695313-0.0644531l0.2753906-0.0449219l0.2773438-0.0214844h0.2792969
	l0.2773438,0.0214844l0.2753906,0.0449219l0.2695313,0.0644531l0.265625,0.0859375l0.2578125,0.1074219l0.2480469,0.125
	l0.2363281,0.1464844l0.2265625,0.1640625l0.2109375,0.1796875l0.1972656,0.1972656l0.1796875,0.2109375l0.1640625,0.2265625
	l0.1464844,0.2363281l0.125,0.2480469l0.1074219,0.2578125l0.0859375,0.265625l0.0644531,0.2695313l0.0429688,0.2753906
	l0.0234375,0.2773438v0.2792969l-0.0234375,0.2773438l-0.0429688,0.2753906l-0.0644531,0.2695313l-0.0859375,0.265625
	l-0.1074219,0.2578125l-0.125,0.2480469l-0.1464844,0.2363281l-0.1640625,0.2265625l-0.1796875,0.2109375l-0.1972656,0.1972656
	l-0.2109375,0.1796875l-0.2265625,0.1640625l-0.2363281,0.1464844l-0.2480469,0.125l-0.2578125,0.1074219l-0.265625,0.0859375
	l-0.2695313,0.0644531l-0.2753906,0.0429688l-0.2773438,0.0234375h-0.2792969l-0.2773438-0.0234375l-0.2753906-0.0429688
	l-0.2695313-0.0644531L465.1987305,46.1787109z M444.3120117,46.1787109l-0.2578125-0.1074219l-0.2480469-0.125
	l-0.2382813-0.1464844l-0.2246094-0.1640625l-0.2128906-0.1796875l-0.1953125-0.1972656l-0.1816406-0.2109375l-0.1640625-0.2265625
	l-0.1445313-0.2363281l-0.1269531-0.2480469l-0.1054688-0.2578125l-0.0859375-0.265625l-0.0664063-0.2695313l-0.0429688-0.2753906
	l-0.0214844-0.2773438v-0.2792969l0.0214844-0.2773438l0.0429688-0.2753906l0.0664063-0.2695313l0.0859375-0.265625
	l0.1054688-0.2578125l0.1269531-0.2480469l0.1445313-0.2363281l0.1640625-0.2265625l0.1816406-0.2109375l0.1953125-0.1972656
	l0.2128906-0.1796875l0.2246094-0.1640625l0.2382813-0.1464844l0.2480469-0.125l0.2578125-0.1074219l0.2636719-0.0859375
	l0.2714844-0.0644531l0.2753906-0.0449219l0.2773438-0.0214844h0.2773438l0.2773438,0.0214844l0.2753906,0.0449219
	l0.2714844,0.0644531l0.2636719,0.0859375l0.2578125,0.1074219l0.2480469,0.125l0.2382813,0.1464844l0.2246094,0.1640625
	l0.2109375,0.1796875l0.1972656,0.1972656l0.1816406,0.2109375l0.1621094,0.2265625l0.1464844,0.2363281l0.1269531,0.2480469
	l0.1054688,0.2578125l0.0859375,0.265625l0.0664063,0.2695313l0.0429688,0.2753906l0.0214844,0.2773438v0.2792969
	l-0.0214844,0.2773438l-0.0429688,0.2753906l-0.0664063,0.2695313l-0.0859375,0.265625l-0.1054688,0.2578125l-0.1269531,0.2480469
	l-0.1464844,0.2363281l-0.1621094,0.2265625l-0.1816406,0.2109375l-0.1972656,0.1972656l-0.2109375,0.1796875l-0.2246094,0.1640625
	l-0.2382813,0.1464844l-0.2480469,0.125l-0.2578125,0.1074219l-0.2636719,0.0859375l-0.2714844,0.0644531l-0.2753906,0.0429688
	l-0.2773438,0.0234375h-0.2773438l-0.2773438-0.0234375l-0.2753906-0.0429688l-0.2714844-0.0644531L444.3120117,46.1787109z
	 M423.425293,46.1787109l-0.2578125-0.1074219l-0.2480469-0.125l-0.2382813-0.1464844l-0.2246094-0.1640625l-0.2128906-0.1796875
	l-0.1953125-0.1972656l-0.1816406-0.2109375l-0.1640625-0.2265625l-0.1445313-0.2363281l-0.1269531-0.2480469l-0.1054688-0.2578125
	l-0.0859375-0.265625l-0.0664063-0.2695313l-0.0429688-0.2753906l-0.0214844-0.2773438v-0.2792969l0.0214844-0.2773438
	l0.0429688-0.2753906l0.0664063-0.2695313l0.0859375-0.265625l0.1054688-0.2578125l0.1269531-0.2480469l0.1445313-0.2363281
	l0.1640625-0.2265625l0.1816406-0.2109375l0.1953125-0.1972656l0.2128906-0.1796875l0.2246094-0.1640625l0.2382813-0.1464844
	l0.2480469-0.125l0.2578125-0.1074219l0.2636719-0.0859375l0.2714844-0.0644531l0.2753906-0.0449219l0.2773438-0.0214844h0.2773438
	l0.2773438,0.0214844l0.2753906,0.0449219l0.2714844,0.0644531l0.2636719,0.0859375l0.2578125,0.1074219l0.2480469,0.125
	l0.2382813,0.1464844l0.2246094,0.1640625l0.2109375,0.1796875l0.1972656,0.1972656l0.1816406,0.2109375l0.1621094,0.2265625
	l0.1464844,0.2363281l0.1269531,0.2480469l0.1054688,0.2578125l0.0859375,0.265625l0.0664063,0.2695313l0.0429688,0.2753906
	l0.0214844,0.2773438v0.2792969l-0.0214844,0.2773438l-0.0429688,0.2753906l-0.0664063,0.2695313l-0.0859375,0.265625
	l-0.1054688,0.2578125l-0.1269531,0.2480469l-0.1464844,0.2363281l-0.1621094,0.2265625l-0.1816406,0.2109375l-0.1972656,0.1972656
	l-0.2109375,0.1796875l-0.2246094,0.1640625l-0.2382813,0.1464844l-0.2480469,0.125l-0.2578125,0.1074219l-0.2636719,0.0859375
	l-0.2714844,0.0644531l-0.2753906,0.0429688l-0.2773438,0.0234375h-0.2773438l-0.2773438-0.0234375l-0.2753906-0.0429688
	l-0.2714844-0.0644531L423.425293,46.1787109z M425.878418,68.1982422l0.2578125,0.1074219l0.2480469,0.125l0.2382813,0.1464844
	l0.2246094,0.1640625l0.2109375,0.1796875l0.1972656,0.1972656l0.1816406,0.2109375l0.1621094,0.2265625l0.1464844,0.2363281
	l0.1269531,0.2480469l0.1054688,0.2578125l0.0859375,0.265625l0.0664063,0.2695313l0.0429688,0.2753906l0.0214844,0.2773438
	v0.2792969l-0.0214844,0.2773438l-0.0429688,0.2753906l-0.0664063,0.2695313l-0.0859375,0.265625l-0.1054688,0.2578125
	l-0.1269531,0.2480469l-0.1464844,0.2363281l-0.1621094,0.2265625l-0.1816406,0.2109375l-0.1972656,0.1972656l-0.2109375,0.1796875
	l-0.2246094,0.1640625l-0.2382813,0.1464844l-0.2480469,0.125l-0.2578125,0.1074219l-0.2636719,0.0859375l-0.2714844,0.0644531
	l-0.2753906,0.0429688l-0.2773438,0.0234375h-0.2773438l-0.2773438-0.0234375l-0.2753906-0.0429688l-0.2714844-0.0644531
	l-0.2636719-0.0859375l-0.2578125-0.1074219l-0.2480469-0.125l-0.2382813-0.1464844l-0.2246094-0.1640625l-0.2128906-0.1796875
	l-0.1953125-0.1972656l-0.1816406-0.2109375l-0.1640625-0.2265625l-0.1445313-0.2363281l-0.1269531-0.2480469l-0.1054688-0.2578125
	l-0.0859375-0.265625l-0.0664063-0.2695313l-0.0429688-0.2753906l-0.0214844-0.2773438v-0.2792969l0.0214844-0.2773438
	l0.0429688-0.2753906l0.0664063-0.2695313l0.0859375-0.265625l0.1054688-0.2578125l0.1269531-0.2480469l0.1445313-0.2363281
	l0.1640625-0.2265625l0.1816406-0.2109375l0.1953125-0.1972656l0.2128906-0.1796875l0.2246094-0.1640625l0.2382813-0.1464844
	l0.2480469-0.125l0.2578125-0.1074219l0.2636719-0.0859375l0.2714844-0.0644531l0.2753906-0.0449219l0.2773438-0.0214844h0.2773438
	l0.2773438,0.0214844l0.2753906,0.0449219l0.2714844,0.0644531L425.878418,68.1982422z M446.7670898,68.1982422l0.2578125,0.1074219
	l0.2480469,0.125l0.2363281,0.1464844l0.2265625,0.1640625l0.2109375,0.1796875l0.1972656,0.1972656l0.1796875,0.2109375
	l0.1640625,0.2265625l0.1464844,0.2363281l0.125,0.2480469l0.1074219,0.2578125l0.0859375,0.265625l0.0644531,0.2695313
	l0.0429688,0.2753906l0.0234375,0.2773438v0.2792969l-0.0234375,0.2773438l-0.0429688,0.2753906l-0.0644531,0.2695313
	l-0.0859375,0.265625l-0.1074219,0.2578125l-0.125,0.2480469l-0.1464844,0.2363281l-0.1640625,0.2265625l-0.1796875,0.2109375
	l-0.1972656,0.1972656l-0.2109375,0.1796875l-0.2265625,0.1640625l-0.2363281,0.1464844l-0.2480469,0.125l-0.2578125,0.1074219
	l-0.265625,0.0859375l-0.2695313,0.0644531l-0.2753906,0.0429688l-0.2773438,0.0234375h-0.2792969l-0.2773438-0.0234375
	l-0.2753906-0.0429688l-0.2695313-0.0644531l-0.265625-0.0859375l-0.2578125-0.1074219l-0.2480469-0.125l-0.2363281-0.1464844
	l-0.2265625-0.1640625l-0.2109375-0.1796875l-0.1972656-0.1972656l-0.1796875-0.2109375l-0.1640625-0.2265625l-0.1464844-0.2363281
	l-0.125-0.2480469l-0.1074219-0.2578125l-0.0859375-0.265625l-0.0644531-0.2695313l-0.0449219-0.2753906l-0.0214844-0.2773438
	v-0.2792969l0.0214844-0.2773438l0.0449219-0.2753906l0.0644531-0.2695313l0.0859375-0.265625l0.1074219-0.2578125l0.125-0.2480469
	l0.1464844-0.2363281l0.1640625-0.2265625l0.1796875-0.2109375l0.1972656-0.1972656l0.2109375-0.1796875l0.2265625-0.1640625
	l0.2363281-0.1464844l0.2480469-0.125l0.2578125-0.1074219l0.265625-0.0859375l0.2695313-0.0644531l0.2753906-0.0449219
	l0.2773438-0.0214844h0.2792969l0.2773438,0.0214844l0.2753906,0.0449219l0.2695313,0.0644531L446.7670898,68.1982422z
	 M467.6538086,68.1982422l0.2578125,0.1074219l0.2480469,0.125l0.2382813,0.1464844l0.2246094,0.1640625l0.2109375,0.1796875
	l0.1972656,0.1972656l0.1816406,0.2109375l0.1621094,0.2265625l0.1464844,0.2363281l0.1269531,0.2480469l0.1054688,0.2578125
	l0.0859375,0.265625l0.0664063,0.2695313l0.0429688,0.2753906l0.0214844,0.2773438v0.2792969l-0.0214844,0.2773438
	l-0.0429688,0.2753906l-0.0664063,0.2695313l-0.0859375,0.265625l-0.1054688,0.2578125l-0.1269531,0.2480469l-0.1464844,0.2363281
	l-0.1621094,0.2265625l-0.1816406,0.2109375l-0.1972656,0.1972656l-0.2109375,0.1796875l-0.2246094,0.1640625l-0.2382813,0.1464844
	l-0.2480469,0.125l-0.2578125,0.1074219l-0.2636719,0.0859375l-0.2714844,0.0644531l-0.2753906,0.0429688l-0.2773438,0.0234375
	h-0.2773438l-0.2773438-0.0234375l-0.2753906-0.0429688l-0.2714844-0.0644531l-0.2636719-0.0859375l-0.2578125-0.1074219
	l-0.2480469-0.125l-0.2382813-0.1464844l-0.2246094-0.1640625l-0.2128906-0.1796875l-0.1953125-0.1972656l-0.1816406-0.2109375
	l-0.1640625-0.2265625l-0.1445313-0.2363281l-0.1269531-0.2480469l-0.1054688-0.2578125l-0.0859375-0.265625l-0.0664063-0.2695313
	l-0.0429688-0.2753906l-0.0214844-0.2773438v-0.2792969l0.0214844-0.2773438l0.0429688-0.2753906l0.0664063-0.2695313
	l0.0859375-0.265625l0.1054688-0.2578125l0.1269531-0.2480469l0.1445313-0.2363281l0.1640625-0.2265625l0.1816406-0.2109375
	l0.1953125-0.1972656l0.2128906-0.1796875l0.2246094-0.1640625l0.2382813-0.1464844l0.2480469-0.125l0.2578125-0.1074219
	l0.2636719-0.0859375l0.2714844-0.0644531l0.2753906-0.0449219l0.2773438-0.0214844h0.2773438l0.2773438,0.0214844
	l0.2753906,0.0449219l0.2714844,0.0644531L467.6538086,68.1982422z"/>
</svg>
